<svg width="123" height="36" viewBox="0 0 123 36" fill="none" xmlns="http://www.w3.org/2000/svg">
<path d="M122.453 11.4208H119.732V8.14172C119.732 7.96799 119.654 7.80772 119.519 7.7018C119.388 7.59893 119.22 7.56235 119.06 7.60249L116.665 8.19176C116.42 8.25221 116.249 8.47395 116.249 8.73125V11.4208H114.884C114.583 11.4208 114.338 11.6707 114.338 11.9781V13.9626C114.338 14.2699 114.583 14.5201 114.885 14.5201H116.249V22.5263C116.28 25.9296 118.457 26.3985 120.806 26.3985C121.038 26.3985 121.27 26.3919 121.506 26.3848C121.744 26.3777 121.985 26.3703 122.234 26.3703L122.262 26.3685C122.582 26.3274 122.78 26.1036 122.78 25.7846V23.6581C122.78 23.3508 122.535 23.1011 122.234 23.1011H121.41C120.218 23.1011 119.732 22.5725 119.732 21.2769V14.5201H122.453C122.755 14.5201 123 14.2699 123 13.9626V11.9781C123 11.6707 122.755 11.4208 122.453 11.4208Z" fill="white"/>
<path d="M107.812 11.194C106.387 11.194 105.27 11.6331 104.486 12.5V11.9781C104.486 11.6603 104.251 11.4208 103.939 11.4208H101.413C101.101 11.4208 100.866 11.6603 100.866 11.9781V25.7846C100.866 26.1023 101.101 26.3421 101.413 26.3421H103.939C104.251 26.3421 104.486 26.1023 104.486 25.7846V17.1377C104.486 15.5381 105.458 14.4632 106.906 14.4632C108.359 14.4632 109.298 15.5241 109.298 17.1659V25.7846C109.298 26.1023 109.533 26.3421 109.844 26.3421H112.371C112.683 26.3421 112.918 26.1023 112.918 25.7846V16.4857C112.918 13.2712 110.914 11.194 107.812 11.194Z" fill="white"/>
<path d="M95.0712 17.4025H89.6933C89.7248 16.9283 89.7857 16.5971 89.8942 16.3068L89.8993 16.2918C90.2494 15.0954 91.0891 14.4632 92.3273 14.4632C93.6609 14.4632 94.6052 15.1884 94.9221 16.4675C94.9894 16.6748 95.042 17.0091 95.0712 17.4025ZM92.3273 11.1941C89.3925 11.1941 87.1687 12.8532 86.3796 15.6273C86.1209 16.4553 86.0099 17.4889 86.0404 18.782C86.0404 20.372 86.2526 21.6516 86.6867 22.6884C87.6478 25.1524 89.7471 26.5408 92.5994 26.5969C92.6343 26.5974 92.6691 26.5977 92.7041 26.5977C95.0783 26.5977 97.1146 25.616 98.3051 23.8893C98.4735 23.6282 98.4298 23.3668 98.1809 23.1527L96.4789 21.708C96.3206 21.5716 96.1733 21.5589 96.077 21.5701C95.9754 21.5833 95.826 21.6397 95.6908 21.8347C95.0138 22.8256 94.076 23.3277 92.9074 23.3277C91.3129 23.3021 90.3002 22.6567 89.8894 21.388C89.7685 21.1131 89.7154 20.7139 89.6686 20.2752H98.1776C98.5035 20.2752 98.7228 20.0527 98.7243 19.721C98.753 18.7629 98.7489 18.0106 98.6405 17.2265C98.1788 13.2235 96.0549 11.1941 92.3273 11.1941Z" fill="white"/>
<path d="M80.2755 18.7541C80.2755 20.3174 80.2163 20.7208 80.09 21.2163C79.8024 22.403 78.9323 23.0837 77.7021 23.0837C76.4862 23.0837 75.5411 22.3702 75.1687 21.161C75.0508 20.8562 74.91 20.1965 74.91 18.7823C74.91 17.6647 75.0091 16.9012 75.2271 16.3655C75.6293 15.1501 76.5215 14.4529 77.6747 14.4529C78.8959 14.4529 79.7885 15.1608 80.0651 16.3579C80.2145 16.8725 80.2755 17.2332 80.2755 18.7541ZM83.3379 11.4207H80.8209C80.51 11.4207 80.2755 11.6597 80.2755 11.9767V12.3513C79.4399 11.5736 78.353 11.1949 76.9633 11.1949C74.5045 11.1949 72.4965 12.7026 71.7246 15.1242C71.3258 16.2644 71.2747 17.6782 71.2747 18.7823C71.2747 20.2316 71.39 21.3352 71.6395 22.2618C72.5097 25.166 75.0592 26.2005 77.1549 26.2005C78.4607 26.2005 79.5098 25.8322 80.275 25.1078C80.2608 26.3214 79.9427 27.1949 79.304 27.7763C78.4673 28.5375 77.0515 28.8113 74.9547 28.6147C74.4128 28.6147 74.3544 28.9835 74.3544 29.1344L74.2723 31.458C74.2723 31.7831 74.4555 32.0008 74.768 32.0414C75.2873 32.095 75.7924 32.1219 76.2799 32.1219C78.6251 32.1219 80.5781 31.5055 81.8758 30.3361C83.2078 29.1352 83.8831 27.3763 83.8831 25.1081V11.9767C83.8831 11.6597 83.6486 11.4207 83.3379 11.4207Z" fill="white"/>
<path d="M70.0474 11.4792C69.6635 11.3255 69.2405 11.2509 68.754 11.2509C67.4618 11.2509 66.4098 11.7761 65.6202 12.8135V11.9783C65.6202 11.671 65.375 11.4208 65.0734 11.4208H62.5465C62.245 11.4208 61.9998 11.6707 61.9998 11.9781V25.7846C61.9998 26.0919 62.2452 26.3421 62.5468 26.3421H65.0734C65.375 26.3421 65.6202 26.0919 65.6202 25.7846V17.7616C65.6202 16.0318 66.8691 15.1858 68.1249 15.1131C68.5609 15.0519 68.8076 15.072 69.0858 15.1271C69.3962 15.1886 69.6894 14.9981 69.7588 14.693L70.429 12.23C70.4971 11.9166 70.3329 11.5938 70.0474 11.4792Z" fill="white"/>
<path d="M55.8313 19.8782V21.1353C55.8313 22.6321 54.28 23.5264 52.78 23.5264C51.7699 23.5264 50.6901 23.0844 50.6901 21.8439C50.6901 20.5948 51.7521 19.8782 53.6039 19.8782H55.8313ZM53.4393 11.1941C50.6477 11.1941 48.4194 12.4732 47.7624 14.4531C47.7065 14.6215 47.7258 14.8044 47.815 14.9553C47.8985 15.0965 48.0367 15.1948 48.1953 15.226L50.6858 15.8509C50.9467 15.8989 51.2064 15.7589 51.3067 15.5181C51.5915 14.8379 52.3778 14.4633 53.5216 14.4633C55.0325 14.4633 55.8313 15.192 55.8313 16.5709V17.176H52.9723C49.2593 17.176 47.0424 19.0058 47.0424 22.071C47.0424 25.3872 49.5951 26.5688 51.9838 26.5688C53.5859 26.5688 54.9101 26.0923 55.8313 25.1911V25.7847C55.8313 26.092 56.0767 26.3419 56.3783 26.3419H58.9046C59.2062 26.3419 59.4516 26.092 59.4516 25.7847V16.2308C59.4516 13.2652 56.9794 11.1941 53.4393 11.1941Z" fill="white"/>
<path d="M24.7582 6.92003e-07H14.6238C14.2851 6.92003e-07 14.0138 0.281179 14.0064 0.630683C13.8017 10.4549 8.82234 19.7792 0.251893 26.3837C-0.0202046 26.5933 -0.0821946 26.9872 0.116734 27.2709L6.04623 35.734C6.24796 36.022 6.64099 36.087 6.91766 35.8754C12.2765 31.7728 16.5869 26.8236 19.691 21.338C22.7951 26.8236 27.1057 31.7728 32.4646 35.8754C32.741 36.087 33.1341 36.022 33.3361 35.734L39.2656 27.2709C39.4642 26.9872 39.4022 26.5933 39.1304 26.3837C30.5597 19.7792 25.5804 10.4549 25.3759 0.630683C25.3685 0.281179 25.0969 6.92003e-07 24.7582 6.92003e-07Z" fill="#FF875B"/>
</svg>
